<svg preserveAspectRatio="none" overflow="visible" style="display: block;" width="204.482" height="38.9431" viewBox="0 0 204.482 38.9431" fill="none" xmlns="http://www.w3.org/2000/svg">
<g id="Event &#194;&#183; mission passed (Pricedown artwork)">
<g id="Vector">
<mask id="path-1-outside-1_0_13" maskUnits="userSpaceOnUse" x="-5.96046e-08" y="3.04793" width="205" height="36" fill="black">
<rect fill="white" x="-5.96046e-08" y="3.04793" width="205" height="36"/>
<path d="M32.5057 35.9431V31.1802H24.8073C24.7773 31.1802 24.7474 31.1503 24.7474 31.1203V13.5067C24.7474 11.9491 23.0699 10.8407 20.9131 10.8407C18.9661 10.8407 17.6181 11.1103 16.6895 12.2786C16.0005 11.32 15.1018 10.8407 13.2746 10.8407C11.4773 10.8407 9.97953 11.2601 9.23065 12.0689V10.8407H3V29.982H9.23065V15.6935C9.23065 15.6635 9.26061 15.6336 9.29056 15.6336H10.6985C10.7284 15.6336 10.7584 15.6635 10.7584 15.6935V29.982H16.989V15.6935C16.989 15.6635 17.019 15.6336 17.0489 15.6336H18.5167C18.5467 15.6336 18.5766 15.6635 18.5766 15.6935V33.5766C18.5766 34.8048 20.1643 35.9431 21.692 35.9431H32.5057ZM32.5057 29.982V10.8407H26.2751V29.982H32.5057ZM44.8772 29.982C46.9441 29.982 47.9925 29.2032 47.9925 27.6156V20.3964C47.9925 18.8088 46.9441 18.03 44.8772 18.03H40.2941C40.2641 18.03 40.2342 18 40.2342 17.97V15.6935C40.2342 15.6635 40.2641 15.6336 40.2941 15.6336H41.702C41.7319 15.6336 41.7619 15.6635 41.7619 15.6935V16.8018H47.9925V13.2671C47.9925 11.6495 46.9441 10.8407 44.8772 10.8407H37.1188C35.0519 10.8407 34.0035 11.6495 34.0035 13.2671V20.3964C34.0035 22.014 35.0519 22.8228 37.1188 22.8228H41.702C41.7319 22.8228 41.7619 22.8527 41.7619 22.8827V25.1593C41.7619 25.1892 41.7319 25.2192 41.702 25.2192H40.2941C40.2641 25.2192 40.2342 25.1892 40.2342 25.1593V24.021H34.0035V27.6156C34.0035 29.2032 35.0519 29.982 37.1188 29.982H44.8772ZM60.304 29.982C62.3709 29.982 63.4194 29.2032 63.4194 27.6156V20.3964C63.4194 18.8088 62.3709 18.03 60.304 18.03H55.7209C55.691 18.03 55.661 18 55.661 17.97V15.6935C55.661 15.6635 55.691 15.6336 55.7209 15.6336H57.1288C57.1588 15.6336 57.1887 15.6635 57.1887 15.6935V16.8018H63.4194V13.2671C63.4194 11.6495 62.3709 10.8407 60.304 10.8407H52.5457C50.4788 10.8407 49.4304 11.6495 49.4304 13.2671V20.3964C49.4304 22.014 50.4788 22.8228 52.5457 22.8228H57.1288C57.1588 22.8228 57.1887 22.8527 57.1887 22.8827V25.1593C57.1887 25.1892 57.1588 25.2192 57.1288 25.2192H55.7209C55.691 25.2192 55.661 25.1892 55.661 25.1593V24.021H49.4304V27.6156C49.4304 29.2032 50.4788 29.982 52.5457 29.982H60.304ZM71.1478 29.982V10.8407H64.9171V29.982H71.1478ZM80.4039 25.1593C80.4039 25.1892 80.3739 25.2192 80.344 25.2192H78.9361C78.9061 25.2192 78.8762 25.1892 78.8762 25.1593V15.6935C78.8762 15.6635 78.9061 15.6336 78.9361 15.6336H80.344C80.3739 15.6336 80.4039 15.6635 80.4039 15.6935V25.1593ZM83.5192 29.982C85.5861 29.982 86.6346 29.2032 86.6346 27.6156V13.2671C86.6346 11.6495 85.5861 10.8407 83.5192 10.8407H75.7609C73.694 10.8407 72.6455 11.6495 72.6455 13.2671V27.6156C72.6455 29.2032 73.694 29.982 75.7609 29.982H83.5192ZM102.121 29.982V13.2671C102.121 11.6495 101.073 10.8407 99.006 10.8407C96.9691 10.8407 95.4114 11.2601 94.363 12.0689V10.8407H88.1323V29.982H94.363V15.6935C94.363 15.6635 94.3929 15.6336 94.4229 15.6336H95.8308C95.8607 15.6336 95.8907 15.6635 95.8907 15.6935V29.982H102.121ZM116.5 35.9431V29.982H121.143C123.3 29.982 124.258 29.2032 124.258 27.6156V13.2671C124.258 11.6495 123.21 10.8407 121.143 10.8407H110.269V35.9431H116.5ZM118.027 25.1593C118.027 25.1892 117.998 25.2192 117.968 25.2192H116.5V15.6336H117.968C117.998 15.6336 118.027 15.6635 118.027 15.6935V25.1593ZM133.514 25.2192H132.046C132.016 25.2192 131.987 25.1892 131.987 25.1593V22.2836C131.987 22.2536 132.016 22.2237 132.046 22.2237H133.514V25.2192ZM139.745 29.982V13.2671C139.745 11.6495 138.696 10.8407 136.63 10.8407H128.871C126.804 10.8407 125.756 11.6495 125.756 13.2671V16.8018H131.987V15.6935C131.987 15.6635 132.016 15.6336 132.046 15.6336H133.454C133.484 15.6336 133.514 15.6635 133.514 15.6935V18.03H128.871C126.804 18.03 125.756 18.8088 125.756 20.3964V27.6156C125.756 29.2032 126.804 29.982 128.871 29.982H139.745ZM152.086 29.982C154.153 29.982 155.202 29.2032 155.202 27.6156V20.3964C155.202 18.8088 154.153 18.03 152.086 18.03H147.503C147.473 18.03 147.443 18 147.443 17.97V15.6935C147.443 15.6635 147.473 15.6336 147.503 15.6336H148.911C148.941 15.6336 148.971 15.6635 148.971 15.6935V16.8018H155.202V13.2671C155.202 11.6495 154.153 10.8407 152.086 10.8407H144.328C142.261 10.8407 141.213 11.6495 141.213 13.2671V20.3964C141.213 22.014 142.261 22.8228 144.328 22.8228H148.911C148.941 22.8228 148.971 22.8527 148.971 22.8827V25.1593C148.971 25.1892 148.941 25.2192 148.911 25.2192H147.503C147.473 25.2192 147.443 25.1892 147.443 25.1593V24.021H141.213V27.6156C141.213 29.2032 142.261 29.982 144.328 29.982H152.086ZM167.513 29.982C169.58 29.982 170.629 29.2032 170.629 27.6156V20.3964C170.629 18.8088 169.58 18.03 167.513 18.03H162.93C162.9 18.03 162.87 18 162.87 17.97V15.6935C162.87 15.6635 162.9 15.6336 162.93 15.6336H164.338C164.368 15.6336 164.398 15.6635 164.398 15.6935V16.8018H170.629V13.2671C170.629 11.6495 169.58 10.8407 167.513 10.8407H159.755C157.688 10.8407 156.64 11.6495 156.64 13.2671V20.3964C156.64 22.014 157.688 22.8228 159.755 22.8228H164.338C164.368 22.8228 164.398 22.8527 164.398 22.8827V25.1593C164.398 25.1892 164.368 25.2192 164.338 25.2192H162.93C162.9 25.2192 162.87 25.1892 162.87 25.1593V24.021H156.64V27.6156C156.64 29.2032 157.688 29.982 159.755 29.982H167.513ZM179.825 18.3595H178.297V15.6935C178.297 15.6635 178.327 15.6336 178.357 15.6336H179.765C179.795 15.6336 179.825 15.6635 179.825 15.6935V18.3595ZM182.94 29.982C185.007 29.982 186.055 29.2032 186.055 27.6156V24.021H179.825V25.1593C179.825 25.1892 179.795 25.2192 179.765 25.2192H178.357C178.327 25.2192 178.297 25.1892 178.297 25.1593V22.8228H186.055V13.2671C186.055 11.6495 185.007 10.8407 182.94 10.8407H175.182C173.115 10.8407 172.066 11.6495 172.066 13.2671V27.6156C172.066 29.2032 173.115 29.982 175.182 29.982H182.94ZM201.482 29.982V6.04793H195.252V10.8407H190.609C188.542 10.8407 187.493 11.6495 187.493 13.2671V27.6156C187.493 29.2032 188.452 29.982 190.609 29.982H201.482ZM195.252 25.2192H193.784C193.754 25.2192 193.724 25.1892 193.724 25.1593V15.6935C193.724 15.6635 193.754 15.6336 193.784 15.6336H195.252V25.2192Z"/>
</mask>
<path d="M32.5057 35.9431V31.1802H24.8073C24.7773 31.1802 24.7474 31.1503 24.7474 31.1203V13.5067C24.7474 11.9491 23.0699 10.8407 20.9131 10.8407C18.9661 10.8407 17.6181 11.1103 16.6895 12.2786C16.0005 11.32 15.1018 10.8407 13.2746 10.8407C11.4773 10.8407 9.97953 11.2601 9.23065 12.0689V10.8407H3V29.982H9.23065V15.6935C9.23065 15.6635 9.26061 15.6336 9.29056 15.6336H10.6985C10.7284 15.6336 10.7584 15.6635 10.7584 15.6935V29.982H16.989V15.6935C16.989 15.6635 17.019 15.6336 17.0489 15.6336H18.5167C18.5467 15.6336 18.5766 15.6635 18.5766 15.6935V33.5766C18.5766 34.8048 20.1643 35.9431 21.692 35.9431H32.5057ZM32.5057 29.982V10.8407H26.2751V29.982H32.5057ZM44.8772 29.982C46.9441 29.982 47.9925 29.2032 47.9925 27.6156V20.3964C47.9925 18.8088 46.9441 18.03 44.8772 18.03H40.2941C40.2641 18.03 40.2342 18 40.2342 17.97V15.6935C40.2342 15.6635 40.2641 15.6336 40.2941 15.6336H41.702C41.7319 15.6336 41.7619 15.6635 41.7619 15.6935V16.8018H47.9925V13.2671C47.9925 11.6495 46.9441 10.8407 44.8772 10.8407H37.1188C35.0519 10.8407 34.0035 11.6495 34.0035 13.2671V20.3964C34.0035 22.014 35.0519 22.8228 37.1188 22.8228H41.702C41.7319 22.8228 41.7619 22.8527 41.7619 22.8827V25.1593C41.7619 25.1892 41.7319 25.2192 41.702 25.2192H40.2941C40.2641 25.2192 40.2342 25.1892 40.2342 25.1593V24.021H34.0035V27.6156C34.0035 29.2032 35.0519 29.982 37.1188 29.982H44.8772ZM60.304 29.982C62.3709 29.982 63.4194 29.2032 63.4194 27.6156V20.3964C63.4194 18.8088 62.3709 18.03 60.304 18.03H55.7209C55.691 18.03 55.661 18 55.661 17.97V15.6935C55.661 15.6635 55.691 15.6336 55.7209 15.6336H57.1288C57.1588 15.6336 57.1887 15.6635 57.1887 15.6935V16.8018H63.4194V13.2671C63.4194 11.6495 62.3709 10.8407 60.304 10.8407H52.5457C50.4788 10.8407 49.4304 11.6495 49.4304 13.2671V20.3964C49.4304 22.014 50.4788 22.8228 52.5457 22.8228H57.1288C57.1588 22.8228 57.1887 22.8527 57.1887 22.8827V25.1593C57.1887 25.1892 57.1588 25.2192 57.1288 25.2192H55.7209C55.691 25.2192 55.661 25.1892 55.661 25.1593V24.021H49.4304V27.6156C49.4304 29.2032 50.4788 29.982 52.5457 29.982H60.304ZM71.1478 29.982V10.8407H64.9171V29.982H71.1478ZM80.4039 25.1593C80.4039 25.1892 80.3739 25.2192 80.344 25.2192H78.9361C78.9061 25.2192 78.8762 25.1892 78.8762 25.1593V15.6935C78.8762 15.6635 78.9061 15.6336 78.9361 15.6336H80.344C80.3739 15.6336 80.4039 15.6635 80.4039 15.6935V25.1593ZM83.5192 29.982C85.5861 29.982 86.6346 29.2032 86.6346 27.6156V13.2671C86.6346 11.6495 85.5861 10.8407 83.5192 10.8407H75.7609C73.694 10.8407 72.6455 11.6495 72.6455 13.2671V27.6156C72.6455 29.2032 73.694 29.982 75.7609 29.982H83.5192ZM102.121 29.982V13.2671C102.121 11.6495 101.073 10.8407 99.006 10.8407C96.9691 10.8407 95.4114 11.2601 94.363 12.0689V10.8407H88.1323V29.982H94.363V15.6935C94.363 15.6635 94.3929 15.6336 94.4229 15.6336H95.8308C95.8607 15.6336 95.8907 15.6635 95.8907 15.6935V29.982H102.121ZM116.5 35.9431V29.982H121.143C123.3 29.982 124.258 29.2032 124.258 27.6156V13.2671C124.258 11.6495 123.21 10.8407 121.143 10.8407H110.269V35.9431H116.5ZM118.027 25.1593C118.027 25.1892 117.998 25.2192 117.968 25.2192H116.5V15.6336H117.968C117.998 15.6336 118.027 15.6635 118.027 15.6935V25.1593ZM133.514 25.2192H132.046C132.016 25.2192 131.987 25.1892 131.987 25.1593V22.2836C131.987 22.2536 132.016 22.2237 132.046 22.2237H133.514V25.2192ZM139.745 29.982V13.2671C139.745 11.6495 138.696 10.8407 136.63 10.8407H128.871C126.804 10.8407 125.756 11.6495 125.756 13.2671V16.8018H131.987V15.6935C131.987 15.6635 132.016 15.6336 132.046 15.6336H133.454C133.484 15.6336 133.514 15.6635 133.514 15.6935V18.03H128.871C126.804 18.03 125.756 18.8088 125.756 20.3964V27.6156C125.756 29.2032 126.804 29.982 128.871 29.982H139.745ZM152.086 29.982C154.153 29.982 155.202 29.2032 155.202 27.6156V20.3964C155.202 18.8088 154.153 18.03 152.086 18.03H147.503C147.473 18.03 147.443 18 147.443 17.97V15.6935C147.443 15.6635 147.473 15.6336 147.503 15.6336H148.911C148.941 15.6336 148.971 15.6635 148.971 15.6935V16.8018H155.202V13.2671C155.202 11.6495 154.153 10.8407 152.086 10.8407H144.328C142.261 10.8407 141.213 11.6495 141.213 13.2671V20.3964C141.213 22.014 142.261 22.8228 144.328 22.8228H148.911C148.941 22.8228 148.971 22.8527 148.971 22.8827V25.1593C148.971 25.1892 148.941 25.2192 148.911 25.2192H147.503C147.473 25.2192 147.443 25.1892 147.443 25.1593V24.021H141.213V27.6156C141.213 29.2032 142.261 29.982 144.328 29.982H152.086ZM167.513 29.982C169.58 29.982 170.629 29.2032 170.629 27.6156V20.3964C170.629 18.8088 169.58 18.03 167.513 18.03H162.93C162.9 18.03 162.87 18 162.87 17.97V15.6935C162.87 15.6635 162.9 15.6336 162.93 15.6336H164.338C164.368 15.6336 164.398 15.6635 164.398 15.6935V16.8018H170.629V13.2671C170.629 11.6495 169.58 10.8407 167.513 10.8407H159.755C157.688 10.8407 156.64 11.6495 156.64 13.2671V20.3964C156.64 22.014 157.688 22.8228 159.755 22.8228H164.338C164.368 22.8228 164.398 22.8527 164.398 22.8827V25.1593C164.398 25.1892 164.368 25.2192 164.338 25.2192H162.93C162.9 25.2192 162.87 25.1892 162.87 25.1593V24.021H156.64V27.6156C156.64 29.2032 157.688 29.982 159.755 29.982H167.513ZM179.825 18.3595H178.297V15.6935C178.297 15.6635 178.327 15.6336 178.357 15.6336H179.765C179.795 15.6336 179.825 15.6635 179.825 15.6935V18.3595ZM182.94 29.982C185.007 29.982 186.055 29.2032 186.055 27.6156V24.021H179.825V25.1593C179.825 25.1892 179.795 25.2192 179.765 25.2192H178.357C178.327 25.2192 178.297 25.1892 178.297 25.1593V22.8228H186.055V13.2671C186.055 11.6495 185.007 10.8407 182.94 10.8407H175.182C173.115 10.8407 172.066 11.6495 172.066 13.2671V27.6156C172.066 29.2032 173.115 29.982 175.182 29.982H182.94ZM201.482 29.982V6.04793H195.252V10.8407H190.609C188.542 10.8407 187.493 11.6495 187.493 13.2671V27.6156C187.493 29.2032 188.452 29.982 190.609 29.982H201.482ZM195.252 25.2192H193.784C193.754 25.2192 193.724 25.1892 193.724 25.1593V15.6935C193.724 15.6635 193.754 15.6336 193.784 15.6336H195.252V25.2192Z" fill="#F0C850"/>
<path d="M32.5057 35.9431V31.1802H24.8073C24.7773 31.1802 24.7474 31.1503 24.7474 31.1203V13.5067C24.7474 11.9491 23.0699 10.8407 20.9131 10.8407C18.9661 10.8407 17.6181 11.1103 16.6895 12.2786C16.0005 11.32 15.1018 10.8407 13.2746 10.8407C11.4773 10.8407 9.97953 11.2601 9.23065 12.0689V10.8407H3V29.982H9.23065V15.6935C9.23065 15.6635 9.26061 15.6336 9.29056 15.6336H10.6985C10.7284 15.6336 10.7584 15.6635 10.7584 15.6935V29.982H16.989V15.6935C16.989 15.6635 17.019 15.6336 17.0489 15.6336H18.5167C18.5467 15.6336 18.5766 15.6635 18.5766 15.6935V33.5766C18.5766 34.8048 20.1643 35.9431 21.692 35.9431H32.5057ZM32.5057 29.982V10.8407H26.2751V29.982H32.5057ZM44.8772 29.982C46.9441 29.982 47.9925 29.2032 47.9925 27.6156V20.3964C47.9925 18.8088 46.9441 18.03 44.8772 18.03H40.2941C40.2641 18.03 40.2342 18 40.2342 17.97V15.6935C40.2342 15.6635 40.2641 15.6336 40.2941 15.6336H41.702C41.7319 15.6336 41.7619 15.6635 41.7619 15.6935V16.8018H47.9925V13.2671C47.9925 11.6495 46.9441 10.8407 44.8772 10.8407H37.1188C35.0519 10.8407 34.0035 11.6495 34.0035 13.2671V20.3964C34.0035 22.014 35.0519 22.8228 37.1188 22.8228H41.702C41.7319 22.8228 41.7619 22.8527 41.7619 22.8827V25.1593C41.7619 25.1892 41.7319 25.2192 41.702 25.2192H40.2941C40.2641 25.2192 40.2342 25.1892 40.2342 25.1593V24.021H34.0035V27.6156C34.0035 29.2032 35.0519 29.982 37.1188 29.982H44.8772ZM60.304 29.982C62.3709 29.982 63.4194 29.2032 63.4194 27.6156V20.3964C63.4194 18.8088 62.3709 18.03 60.304 18.03H55.7209C55.691 18.03 55.661 18 55.661 17.97V15.6935C55.661 15.6635 55.691 15.6336 55.7209 15.6336H57.1288C57.1588 15.6336 57.1887 15.6635 57.1887 15.6935V16.8018H63.4194V13.2671C63.4194 11.6495 62.3709 10.8407 60.304 10.8407H52.5457C50.4788 10.8407 49.4304 11.6495 49.4304 13.2671V20.3964C49.4304 22.014 50.4788 22.8228 52.5457 22.8228H57.1288C57.1588 22.8228 57.1887 22.8527 57.1887 22.8827V25.1593C57.1887 25.1892 57.1588 25.2192 57.1288 25.2192H55.7209C55.691 25.2192 55.661 25.1892 55.661 25.1593V24.021H49.4304V27.6156C49.4304 29.2032 50.4788 29.982 52.5457 29.982H60.304ZM71.1478 29.982V10.8407H64.9171V29.982H71.1478ZM80.4039 25.1593C80.4039 25.1892 80.3739 25.2192 80.344 25.2192H78.9361C78.9061 25.2192 78.8762 25.1892 78.8762 25.1593V15.6935C78.8762 15.6635 78.9061 15.6336 78.9361 15.6336H80.344C80.3739 15.6336 80.4039 15.6635 80.4039 15.6935V25.1593ZM83.5192 29.982C85.5861 29.982 86.6346 29.2032 86.6346 27.6156V13.2671C86.6346 11.6495 85.5861 10.8407 83.5192 10.8407H75.7609C73.694 10.8407 72.6455 11.6495 72.6455 13.2671V27.6156C72.6455 29.2032 73.694 29.982 75.7609 29.982H83.5192ZM102.121 29.982V13.2671C102.121 11.6495 101.073 10.8407 99.006 10.8407C96.9691 10.8407 95.4114 11.2601 94.363 12.0689V10.8407H88.1323V29.982H94.363V15.6935C94.363 15.6635 94.3929 15.6336 94.4229 15.6336H95.8308C95.8607 15.6336 95.8907 15.6635 95.8907 15.6935V29.982H102.121ZM116.5 35.9431V29.982H121.143C123.3 29.982 124.258 29.2032 124.258 27.6156V13.2671C124.258 11.6495 123.21 10.8407 121.143 10.8407H110.269V35.9431H116.5ZM118.027 25.1593C118.027 25.1892 117.998 25.2192 117.968 25.2192H116.5V15.6336H117.968C117.998 15.6336 118.027 15.6635 118.027 15.6935V25.1593ZM133.514 25.2192H132.046C132.016 25.2192 131.987 25.1892 131.987 25.1593V22.2836C131.987 22.2536 132.016 22.2237 132.046 22.2237H133.514V25.2192ZM139.745 29.982V13.2671C139.745 11.6495 138.696 10.8407 136.63 10.8407H128.871C126.804 10.8407 125.756 11.6495 125.756 13.2671V16.8018H131.987V15.6935C131.987 15.6635 132.016 15.6336 132.046 15.6336H133.454C133.484 15.6336 133.514 15.6635 133.514 15.6935V18.03H128.871C126.804 18.03 125.756 18.8088 125.756 20.3964V27.6156C125.756 29.2032 126.804 29.982 128.871 29.982H139.745ZM152.086 29.982C154.153 29.982 155.202 29.2032 155.202 27.6156V20.3964C155.202 18.8088 154.153 18.03 152.086 18.03H147.503C147.473 18.03 147.443 18 147.443 17.97V15.6935C147.443 15.6635 147.473 15.6336 147.503 15.6336H148.911C148.941 15.6336 148.971 15.6635 148.971 15.6935V16.8018H155.202V13.2671C155.202 11.6495 154.153 10.8407 152.086 10.8407H144.328C142.261 10.8407 141.213 11.6495 141.213 13.2671V20.3964C141.213 22.014 142.261 22.8228 144.328 22.8228H148.911C148.941 22.8228 148.971 22.8527 148.971 22.8827V25.1593C148.971 25.1892 148.941 25.2192 148.911 25.2192H147.503C147.473 25.2192 147.443 25.1892 147.443 25.1593V24.021H141.213V27.6156C141.213 29.2032 142.261 29.982 144.328 29.982H152.086ZM167.513 29.982C169.58 29.982 170.629 29.2032 170.629 27.6156V20.3964C170.629 18.8088 169.58 18.03 167.513 18.03H162.93C162.9 18.03 162.87 18 162.87 17.97V15.6935C162.87 15.6635 162.9 15.6336 162.93 15.6336H164.338C164.368 15.6336 164.398 15.6635 164.398 15.6935V16.8018H170.629V13.2671C170.629 11.6495 169.58 10.8407 167.513 10.8407H159.755C157.688 10.8407 156.64 11.6495 156.64 13.2671V20.3964C156.64 22.014 157.688 22.8228 159.755 22.8228H164.338C164.368 22.8228 164.398 22.8527 164.398 22.8827V25.1593C164.398 25.1892 164.368 25.2192 164.338 25.2192H162.93C162.9 25.2192 162.87 25.1892 162.87 25.1593V24.021H156.64V27.6156C156.64 29.2032 157.688 29.982 159.755 29.982H167.513ZM179.825 18.3595H178.297V15.6935C178.297 15.6635 178.327 15.6336 178.357 15.6336H179.765C179.795 15.6336 179.825 15.6635 179.825 15.6935V18.3595ZM182.94 29.982C185.007 29.982 186.055 29.2032 186.055 27.6156V24.021H179.825V25.1593C179.825 25.1892 179.795 25.2192 179.765 25.2192H178.357C178.327 25.2192 178.297 25.1892 178.297 25.1593V22.8228H186.055V13.2671C186.055 11.6495 185.007 10.8407 182.94 10.8407H175.182C173.115 10.8407 172.066 11.6495 172.066 13.2671V27.6156C172.066 29.2032 173.115 29.982 175.182 29.982H182.94ZM201.482 29.982V6.04793H195.252V10.8407H190.609C188.542 10.8407 187.493 11.6495 187.493 13.2671V27.6156C187.493 29.2032 188.452 29.982 190.609 29.982H201.482ZM195.252 25.2192H193.784C193.754 25.2192 193.724 25.1892 193.724 25.1593V15.6935C193.724 15.6635 193.754 15.6336 193.784 15.6336H195.252V25.2192Z" stroke="black" stroke-width="6" stroke-linejoin="round" mask="url(#path-1-outside-1_0_13)"/>
</g>
</g>
</svg>
